:FULLY-SPECIFIED
:FORCE-ALL-JOINTS-BE-3DOF
:DEGREES
136
root 7.83869 16.5412 -26.2744 -10.2315 9.24881 5.08228
lfemur -5.7958 12.9712 -21.5329
ltibia 34.984 -0 0
lfoot -17.7764 -9.62599 0.0174387
ltoes 26.4578 -0 0
rfemur -98.369 -26.9685 58.1042
rtibia 83.7667 -0 0
rfoot 1.75373 19.4944 0.186986
rtoes -32.2704 0 0
lowerback 16.7043 -2.89775 -8.82435
upperback 5.49798 -5.27979 -1.65977
thorax -2.79302 -2.65349 4.15545
lowerneck -12.5632 -0.764011 -0.0146197
upperneck 0.821086 -1.15785 3.03963
head 2.47558 -0.468005 0.920359
lclavicle 0 0 0
lhumerus -41.0553 -21.5614 90.6428
lradius 52.8868 -0 0
lwrist 15.8981 0 0
lhand 10.0283 6.8368 0.0933943
lfingers 0 0 0
lthumb 35.1357 33.2091 0.0332221
rclavicle 0 0 0
rhumerus -44.0414 -23.0854 -57.8217
rradius 79.3528 -0 0
rwrist -30.6465 0 0
rhand -11.5267 -31.8037 3.26156
rfingers 0 0 0
rthumb 16.9984 -14.7081 -11.6317
137
root 7.79981 16.5253 -26.2732 -9.74035 10.4962 4.80283
lfemur -6.77501 13.5091 -21.1287
ltibia 35.5631 -0 0
lfoot -18.0508 -10.1735 0.0215125
ltoes 25.7264 -0 0
rfemur -98.4256 -27.1802 56.4531
rtibia 88.5632 -0 0
rfoot 6.7463 19.8184 0.231119
rtoes -28.1503 0 0
lowerback 16.5364 -3.25646 -8.73515
upperback 5.34879 -5.72854 -1.72732
thorax -2.82389 -2.86771 4.09916
lowerneck -12.4347 -0.947384 -0.181243
upperneck 0.708453 -1.38641 3.33806
head 2.42533 -0.574552 1.03362
lclavicle 0 0 0
lhumerus -40.3577 -22.8339 90.7873
lradius 52.1186 -0 0
lwrist 15.2474 0 0
lhand 11.4207 7.41484 0.115229
lfingers 0 0 0
lthumb 36.45 33.4269 0.0409875
rclavicle 0 0 0
rhumerus -45.1592 -23.226 -58.9195
rradius 80.7514 -0 0
rwrist -28.9656 0 0
rhand -17.1129 -36.8917 4.04198
rfingers 0 0 0
rthumb 10.7531 2.6332 -14.7862
138
root 7.7603 16.5123 -26.2744 -9.22894 11.8088 4.51979
lfemur -7.8017 14.0812 -20.7134
ltibia 36.1713 -0 0
lfoot -18.339 -10.7487 0.0229677
ltoes 24.9582 -0 0
rfemur -98.4778 -27.4041 54.7158
rtibia 93.601 -0 0
rfoot 11.9903 20.1615 0.246925
rtoes -23.8228 0 0
lowerback 16.3594 -3.63294 -8.64029
upperback 5.19254 -6.20005 -1.79707
thorax -2.85609 -3.09273 4.04014
lowerneck -12.2991 -1.13958 -0.356704
upperneck 0.58886 -1.62584 3.65202
head 2.37232 -0.686352 1.15267
lclavicle 0 0 0
lhumerus -39.6214 -24.1721 90.9223
lradius 51.3118 -0 0
lwrist 14.564 0 0
lhand 12.8834 8.02235 0.12303
lfingers 0 0 0
lthumb 37.8306 33.6558 0.0437617
rclavicle 0 0 0
rhumerus -46.3313 -23.3948 -60.0704
rradius 82.2203 -0 0
rwrist -27.2001 0 0
rhand -23.0341 -42.2943 4.32254
rfingers 0 0 0
rthumb 3.39492 21.3015 -15.9612
139
root 7.72194 16.5018 -26.2773 -8.72461 13.116 4.24896
lfemur -8.82059 14.657 -20.3101
ltibia 36.7759 -0 0
lfoot -18.6255 -11.3203 0.021547
ltoes 24.1946 -0 0
rfemur -98.5221 -27.6278 52.9855
rtibia 98.6087 -0 0
rfoot 17.2028 20.5026 0.231494
rtoes -19.5213 0 0
lowerback 16.1828 -4.00686 -8.5448
upperback 5.03765 -6.66892 -1.86518
thorax -2.88788 -3.31645 3.98159
lowerneck -12.1637 -1.33021 -0.531576
upperneck 0.468669 -1.86318 3.96464
head 2.3194 -0.797373 1.27113
lclavicle 0 0 0
lhumerus -38.8851 -25.5038 91.0391
lradius 50.5098 -0 0
lwrist 13.8848 0 0
lhand 14.3372 8.62622 0.115414
lfingers 0 0 0
lthumb 39.2028 33.8833 0.0410533
rclavicle 0 0 0
rhumerus -47.494 -23.584 -61.212
rradius 83.6805 -0 0
rwrist -25.4452 0 0
rhand -28.9202 -47.6649 4.04863
rfingers 0 0 0
rthumb -3.92346 39.8605 -14.8138
140
root 7.68654 16.4937 -26.2813 -8.25392 14.3465 4.00389
lfemur -9.77676 15.2043 -19.9398
ltibia 37.3441 -0 0
lfoot -18.8947 -11.8576 0.0176068
ltoes 23.477 -0 0
rfemur -98.5568 -27.8391 51.3565
rtibia 103.315 -0 0
rfoot 22.1012 20.8206 0.188803
rtoes -15.4789 0 0
lowerback 16.0161 -4.35799 -8.45397
upperback 4.89247 -7.10972 -1.92808
thorax -2.91755 -3.52672 3.92666
lowerneck -12.036 -1.50898 -0.696338
upperneck 0.354523 -2.08563 4.25892
head 2.26946 -0.901607 1.38254
lclavicle 0 0 0
lhumerus -38.1882 -26.7564 91.1325
lradius 49.7562 -0 0
lwrist 13.2464 0 0
lhand 15.7034 9.19337 0.0942948
lfingers 0 0 0
lthumb 40.4924 34.097 0.0335424
rclavicle 0 0 0
rhumerus -48.5844 -23.781 -62.2824
rradius 85.0526 -0 0
rwrist -23.7961 0 0
rhand -34.4026 -52.6586 3.29361
rfingers 0 0 0
rthumb -10.0746 56.8873 -11.7581
141
root 7.65589 16.4878 -26.2855 -7.84284 15.4287 3.79617
lfemur -10.6155 15.6898 -19.6217
ltibia 37.843 -0 0
lfoot -19.1311 -12.3293 0.0120649
ltoes 22.8467 -0 0
rfemur -98.5818 -28.0253 49.9233
rtibia 107.448 -0 0
rfoot 26.4027 21.096 0.129031
rtoes -11.9288 0 0
lowerback 15.8693 -4.66614 -8.37332
upperback 4.76525 -7.49695 -1.98244
thorax -2.94344 -3.7114 3.87851
lowerneck -11.9233 -1.66568 -0.841373
upperneck 0.253324 -2.28049 4.51776
head 2.22543 -0.993065 1.48046
lclavicle 0 0 0
lhumerus -37.5716 -27.8572 91.2013
lradius 49.0943 -0 0
lwrist 12.6858 0 0
lhand 16.9029 9.69091 0.0646016
lfingers 0 0 0
lthumb 41.6249 34.2845 0.0229812
rclavicle 0 0 0
rhumerus -49.5399 -23.9695 -63.2203
rradius 86.2577 -0 0
rwrist -22.3477 0 0
rhand -39.1437 -56.9641 2.24308
rfingers 0 0 0
rthumb -14.4738 71.3397 -7.74661
142
root 7.63178 16.4838 -26.2894 -7.51712 16.2907 3.63589
lfemur -11.2823 16.0793 -19.3734
ltibia 38.24 -0 0
lfoot -19.3191 -12.7047 0.00626552
ltoes 22.3453 -0 0
rfemur -98.5979 -28.1739 48.7813
rtibia 110.736 -0 0
rfoot 29.8248 21.3114 0.0668217
rtoes -9.10428 0 0
lowerback 15.7521 -4.91116 -8.30856
upperback 4.66422 -7.80513 -2.02511
thorax -2.96393 -3.85835 3.84025
lowerneck -11.8334 -1.79014 -0.956994
upperneck 0.172169 -2.4352 4.72397
head 2.19028 -1.06578 1.55842
lclavicle 0 0 0
lhumerus -37.0775 -28.7334 91.2468
lradius 48.5677 -0 0
lwrist 12.2397 0 0
lhand 17.857 10.0862 0.0335417
lfingers 0 0 0
lthumb 42.5259 34.4335 0.0119327
rclavicle 0 0 0
rhumerus -50.2987 -24.1296 -63.965
rradius 87.2165 -0 0
rwrist -21.1954 0 0
rhand -42.8491 -60.3166 1.15753
rfingers 0 0 0
rthumb -17.1463 82.5118 -3.8668
143
root 7.61599 16.4816 -26.2923 -7.30255 16.8606 3.53244
lfemur -11.7225 16.3381 -19.2116
ltibia 38.5022 -0 0
lfoot -19.4433 -12.9526 0.00175929
ltoes 22.0141 -0 0
rfemur -98.6067 -28.2721 48.0262
rtibia 112.908 -0 0
rfoot 32.0852 21.4515 0.0187221
rtoes -7.23856 0 0
lowerback 15.6745 -5.07294 -8.2655
upperback 4.59756 -8.00874 -2.05301
thorax -2.97742 -3.95542 3.815
lowerneck -11.7739 -1.87226 -1.03348
upperneck 0.118252 -2.53724 4.86032
head 2.16701 -1.11378 1.60994
lclavicle 0 0 0
lhumerus -36.7493 -29.3124 91.2724
lradius 48.2198 -0 0
lwrist 11.9451 0 0
lhand 18.4872 10.3471 0.00941658
lfingers 0 0 0
lthumb 43.121 34.5318 0.00335016
rclavicle 0 0 0
rhumerus -50.7991 -24.2403 -64.4561
rradius 87.8498 -0 0
rwrist -20.4343 0 0
rhand -45.2586 -62.4891 0.323454
rfingers 0 0 0
rthumb -18.4721 89.7674 -1.05374
144
root 7.45764 16.4299 -26.2436 -7.22517 17.0665 3.49555
lfemur -11.8814 16.4318 -19.1537
ltibia 38.5969 0 0
lfoot -19.4881 -13.0421 0
ltoes 21.8945 0 0
rfemur -98.6095 -28.3076 47.7533
rtibia 113.692 0 0
rfoot 32.9014 21.5016 0
rtoes -6.56482 0 0
lowerback 15.6464 -5.13134 -8.24989
upperback 4.57351 -8.08227 -2.06303
thorax -2.98228 -3.99048 3.80589
lowerneck -11.7524 -1.90189 -1.06112
upperneck 0.0987205 -2.57405 4.90958
head 2.1586 -1.13111 1.62855
lclavicle -4.36332e-14 -1.90833e-14 0
lhumerus -36.6304 -29.5215 91.2807
lradius 48.0942 0 0
lwrist 11.8387 0 0
lhand 18.7147 10.4412 0
lfingers 7.12502 0 0
lthumb 43.3359 34.5673 0
rclavicle -4.36332e-14 -1.90833e-14 0
rhumerus -50.9797 -24.2812 -64.6333
rradius 88.0785 0 0
rwrist -20.1594 0 0
rhand -46.1207 -63.2647 0
rfingers 7.12502 0 0
rthumb -18.8617 92.37 0
